<svg width="287" height="231" viewBox="0 0 287 231" fill="none" xmlns="http://www.w3.org/2000/svg">
<g clip-path="url(#clip0_1323_382)">
<path d="M76.9464 128.696L76.7677 128.225C74.2997 122.295 74.1925 115.719 76.4657 109.708C79.7424 101.044 87.4875 95.0882 96.2848 93.773L95.7717 95.2635C94.7326 98.6214 93.7064 103.674 94.7098 108.701C95.6841 113.556 97.337 118.145 97.3987 118.311C100.351 126.601 95.1222 130.95 94.0473 131.735L91.7287 133.427L103.501 169.263H111.804L100.922 136.113C103.965 132.892 108.505 125.962 104.829 115.641C104.813 115.599 103.306 111.429 102.452 107.152C101.922 104.502 102.228 101.109 103.273 97.7218C106.527 86.1415 121.728 86.5149 121.728 86.5149L140.658 86.6091L151.54 41.2197C152.894 33.5915 158.723 29.1425 167.54 29.0061L169.628 29.0938L174.613 24.083L179.913 28.3404L184.907 22.2677L174.444 13.0742L166.335 21.1441C154.326 21.7221 145.727 28.808 143.782 39.7681C140.687 55.5507 136.124 73.9734 133.65 78.6951L122.014 78.6204C120.68 78.5717 108.554 78.3314 101.049 85.6316C87.1498 85.1705 74.1081 93.6203 69.0843 106.912C66.1064 114.79 66.2363 123.409 69.4545 131.187L69.7176 131.862C71.1042 135.08 70.7145 136.571 70.5587 136.954C69.828 138.773 67.8665 139.701 66.1844 139.029L63.2422 146.355C64.5736 146.891 65.9505 147.145 67.3112 147.145C71.7927 147.145 76.0793 144.394 77.8849 139.9C78.7389 137.776 79.2748 134.126 76.9496 128.696H76.9464Z" fill="white"/>
<path d="M199.254 42.3693C199.29 42.366 199.394 42.353 199.514 42.3628H199.66C200.689 42.3758 201.582 43.0772 201.833 44.0742C201.975 44.662 201.888 45.2692 201.576 45.7856C201.264 46.3052 200.771 46.6689 200.186 46.815C199.449 46.9936 198.708 46.8248 198.153 46.3441L196.88 45.2368L174.44 47.3184L183.046 84.141L183.887 84.9496C186.868 87.8204 188.651 92.0875 188.651 96.3676C188.651 97.2736 188.57 98.0433 188.375 99.5371L187.794 103.996H212.393L206.064 125.65C203.908 132.284 197.783 134.369 197.341 134.512L201.423 141.371C204.586 139.948 210.945 136.171 213.604 127.981L222.928 96.1046H196.542C196.478 90.1358 194.191 84.3943 190.216 80.1304L184.189 54.3426L194.487 53.3878C196.754 54.716 199.481 55.1252 202.089 54.4757C204.723 53.8197 206.944 52.1798 208.34 49.8546C209.737 47.5294 210.146 44.7984 209.49 42.1679C208.402 37.7936 204.567 34.6761 200.085 34.478L196.396 30.9188L213.452 1.53604L211.581 0L184.995 32.3509L197.776 42.5089L199.251 42.3693H199.254Z" fill="white"/>
<path d="M174.191 120.788V112.069L169.313 113.251C153.969 116.973 141.31 111.397 141.197 111.345L137.907 109.841L120.322 140.783L131.351 169.259H139.817L129.038 141.426L141.33 119.801C146.065 121.331 155.274 123.484 166.296 121.87V122.961L193.864 169.259H203.051L174.191 120.788Z" fill="white"/>
<g clip-path="url(#clip1_1323_382)">
<path d="M264.811 231.086C275.393 231.086 282.999 227.177 282.999 218.147C282.999 210.714 277.322 207.41 267.621 206.859L261.944 206.529C255.881 206.199 253.347 204.822 253.347 202.73C253.347 200.472 256.213 199.261 261.449 199.261C266.685 199.261 272.637 200.527 280.519 203.446V194.689C275.613 192.762 268.448 191 261.614 191C250.15 191 244.417 195.736 244.417 203.223C244.417 209.556 249.984 214.071 260.787 214.731L266.244 215.061C272.251 215.447 274.071 216.382 274.071 218.75C274.071 220.842 271.59 222.824 264.811 222.824C258.804 222.824 252.795 221.338 246.126 218.694V227.504C251.032 229.431 258.196 231.084 264.811 231.084V231.086ZM209.584 217.375L215.426 206.968L221.268 217.375H209.583H209.584ZM192.499 230.314H202.31L205.396 224.863H225.458L228.544 230.314H238.355L215.427 191H215.372L192.499 230.314ZM169.79 230.314H178.388V199.81H193.379V191.77H154.798V199.809H169.789V230.314H169.79ZM133.854 230.314H142.452V191.77H133.854V230.314ZM100.454 230.314H116.989V208.951H108.391V222.165H100.785C92.1876 222.165 88.3289 217.32 88.3289 211.042C88.3289 204.764 92.1876 199.919 100.564 199.919H116.989V191.77H100.454C87.667 191.77 79.51 200.47 79.51 211.042C79.51 221.615 87.667 230.314 100.454 230.314ZM56.7469 230.314H65.3447V191.77H56.7469V230.314ZM21.3062 222.165H12.5978V199.921H21.5272C29.9052 199.921 33.7626 204.766 33.7626 211.044C33.7626 217.322 29.904 222.167 21.3062 222.167V222.165ZM4 230.314H21.6378C34.4246 230.314 42.5815 221.615 42.5815 211.042C42.5815 200.47 34.4246 191.77 21.6378 191.77H4V230.314Z" fill="white"/>
</g>
</g>
<defs>
<clipPath id="clip0_1323_382">
<rect width="285.725" height="230.36" fill="white" transform="translate(0.59668)"/>
</clipPath>
<clipPath id="clip1_1323_382">
<rect width="279" height="40.0862" fill="white" transform="translate(4 191)"/>
</clipPath>
</defs>
</svg>
