<svg width="259" height="244" viewBox="0 0 259 244" fill="none" xmlns="http://www.w3.org/2000/svg">
<path fill-rule="evenodd" clip-rule="evenodd" d="M122.796 0.165886C99.5244 1.44701 77.4332 8.8868 57.841 22.0404C55.1042 23.8778 52.6892 25.3111 52.4746 25.2256C52.2596 25.1398 45.2299 19.7836 36.8527 13.3227C28.4753 6.8617 21.3615 1.57544 21.044 1.57544C19.4283 1.57544 19.4053 1.67407 15.5605 24.9911C7.27878 75.2141 4.01123 95.3119 3.33182 100.205C0.605669 119.839 0.260465 130.054 1.88324 143.086C2.76381 150.154 3.05047 151.489 3.89025 152.433C4.82226 153.479 6.57133 154.132 8.44423 154.132C11.3194 154.132 20.3703 155.181 25.6526 156.127C48.242 160.17 68.8215 169.348 85.9657 183.025C91.3619 187.329 99.6628 195.563 103.693 200.609C112.524 211.662 119.08 224.54 122.156 236.875C123.207 241.088 123.485 241.638 124.936 242.359C126.88 243.327 133.207 243.286 134.888 242.296C135.55 241.905 136.222 241.347 136.38 241.054C136.538 240.761 137.239 238.366 137.937 235.732C146.152 204.759 172.312 177.549 207.124 163.768C219.168 159 231.18 156.065 244.376 154.666C247.108 154.376 250.197 154.138 251.241 154.136C253.454 154.131 255.269 153.375 256.096 152.112C257.372 150.165 258.746 137.719 258.741 128.154C258.734 113.741 258.291 110.519 246.459 38.6502C240.185 0.543728 240.33 1.2125 238.466 1.69926C238.009 1.81846 230.81 7.18775 222.469 13.631C214.127 20.0742 207.153 25.3459 206.97 25.3459C206.787 25.3459 205.319 24.4015 203.708 23.2473C192.102 14.9341 176.083 7.56595 161.695 3.92339C149.793 0.909865 135.087 -0.510685 122.796 0.165886ZM144.505 10.257C157.794 11.9574 170.033 15.6369 182.289 21.6168C187.633 24.2244 195.658 28.9171 198.223 30.9344L199.135 31.6514L190.889 38.0028C186.354 41.4963 170.789 53.4972 156.299 64.6714C140.26 77.0409 129.791 84.8877 129.537 84.7305C129.307 84.5886 114.022 72.8268 95.5686 58.5929C77.1156 44.3594 61.6986 32.4845 61.3083 32.2045C60.6062 31.7004 60.6079 31.6876 61.4587 30.9859C63.3153 29.4546 71.74 24.4536 76.3486 22.1472C89.9485 15.3403 104.747 11.1106 119.67 9.76489C124.905 9.29303 139.18 9.57579 144.505 10.257ZM35.0671 23.8423C39.5619 27.3036 43.672 30.4768 44.2 30.894L45.1603 31.6525L42.0982 34.6192C34.029 42.4372 28.9525 48.2695 24.1398 55.2519C22.5327 57.5836 20.9468 59.8311 20.6154 60.2466C20.0385 60.9696 20.0194 60.9714 20.1695 60.292C20.3174 59.6207 24.5446 31.219 25.8857 21.8868C26.2291 19.4966 26.5967 17.5424 26.7021 17.5449C26.8078 17.5471 30.572 20.3807 35.0671 23.8423ZM233.365 18.6937C234.092 22.961 239.585 60.5889 239.494 60.6801C239.432 60.7426 238.54 59.5232 237.513 57.9699C232.418 50.2672 225.936 42.5241 219.157 36.0444C216.672 33.6694 214.755 31.6078 214.895 31.463C215.475 30.8663 232.688 17.5985 232.918 17.5708C233.056 17.5541 233.257 18.0597 233.365 18.6937ZM56.6564 40.5128C58.6375 42.0249 74.8234 54.4987 92.625 68.2317L124.992 93.2009L124.981 140.43C124.975 167.693 124.839 187.434 124.659 187.127C124.488 186.834 123.683 184.788 122.871 182.58C118.809 171.537 111.697 158.026 104.508 147.694C97.2804 137.306 86.3595 125.537 77.1358 118.195C64.1433 107.853 50.1936 100.483 35.743 96.3248C30.9871 94.9564 22.4755 93.2109 18.9891 92.8891C17.5685 92.7578 16.3279 92.5244 16.2328 92.3704C15.9649 91.9372 19.4716 82.7824 21.7269 78.0265C27.0189 66.8672 34.1043 56.482 42.7255 47.248C46.1083 43.625 52.3543 37.7633 52.8322 37.7633C52.9546 37.7633 54.6753 39.0008 56.6564 40.5128ZM210.71 41.055C221.25 50.9403 228.903 60.7951 235.336 72.7651C239.064 79.7039 243.772 91.1514 243.35 92.2519C243.266 92.4711 242.115 92.761 240.793 92.8965C222.327 94.7882 200.801 103.968 183.96 117.131C179.674 120.481 171.141 128.198 169.848 129.892L168.949 131.071H151.937H134.926L134.944 112.002L134.963 92.932L140 89.1078C142.77 87.0047 158.847 74.6064 175.726 61.5561C192.605 48.5057 206.591 37.8133 206.807 37.7956C207.023 37.7778 208.779 39.2445 210.71 41.055ZM84.3174 85.7455C80.5198 89.4197 79.7744 90.523 80.2551 91.7591C80.43 92.209 82.1631 94.1337 84.1066 96.0364C86.5983 98.4755 87.8922 99.4955 88.4942 99.4955C89.737 99.4955 96.964 92.2079 96.964 90.9545C96.964 89.7713 89.6678 82.4659 88.4864 82.4659C87.9855 82.4659 86.4986 83.6356 84.3174 85.7455ZM152.513 86.9259C151.644 87.7948 151.715 93.8466 152.604 94.6509C153.189 95.1803 154.937 95.2381 170.318 95.2381C185.358 95.2381 187.449 95.1721 187.941 94.6807C188.368 94.2532 188.498 93.3482 188.498 90.8033C188.498 88.2584 188.368 87.3534 187.941 86.9259C187.449 86.4345 185.35 86.3685 170.227 86.3685C155.103 86.3685 153.004 86.4345 152.513 86.9259ZM18.3796 102.345C55.9631 107.344 90.0507 134.527 109.15 174.731C114.074 185.095 116.92 193.151 120.61 207.172C120.713 207.562 119.373 205.726 117.633 203.092C112.753 195.705 108.655 190.669 102.463 184.447C86.0164 167.924 65.7172 156.325 41.687 149.72C33.5799 147.492 25.427 146.084 14.2996 144.991L11.6387 144.73L11.1488 141.537C10.3821 136.542 10.4321 119.662 11.2303 114.042C11.8949 109.362 13.1792 102.356 13.4545 101.911C13.5442 101.766 14.0505 101.719 14.5795 101.807C15.1085 101.895 16.8185 102.137 18.3796 102.345ZM246.485 102.422C248.63 112.423 249.785 124.338 249.363 132.136C249.142 136.217 248.256 144.548 248.023 144.726C247.969 144.768 245.769 145.001 243.134 145.243C210.145 148.284 179.487 162.179 157.672 183.977C151.211 190.431 145.362 197.696 141.328 204.275C140.286 205.974 139.37 207.3 139.293 207.222C139.215 207.145 139.883 204.422 140.776 201.172C146.412 180.672 155.809 161.944 168.473 145.972C173.182 140.032 184.079 129.139 189.562 124.89C196.076 119.842 202.74 115.645 209.607 112.263C220.731 106.786 230.487 103.775 242.247 102.187C244.199 101.923 245.912 101.689 246.055 101.666C246.197 101.643 246.391 101.983 246.485 102.422ZM160.47 140.357C160.47 140.488 159.436 141.967 158.171 143.644C149.763 154.792 142.17 168.687 136.836 182.692L134.943 187.659L134.935 163.889L134.926 140.118H147.698C154.723 140.118 160.47 140.225 160.47 140.357Z" fill="white"/>
</svg>
